.
..............................Site Info...........................

 -   http://www.scenetime.com  *_*   

SceneTime is going to Close sign up on march/1, hurry up! get in before the doors are closed.

     We care to share . Join us on  http://www.scenetime.com 

    Be the first to get new release at  http://www.scenetime.com

        Seed back for speed


...................................NFO:.................................................[IMG]http://img585.imageshack.us/img585/4649/manonaledgeukposter.jpg[/IMG]

Complete name                    : Man On A Ledge v1 NEW SOURCE READNFO CAM H264 AC3 - DTRG.mkv
Format                           : Matroska
Format version                   : Version 2
File size                        : 595 MiB
Duration                         : 1h 35mn
Overall bit rate                 : 874 Kbps
Encoded date                     : UTC 2012-02-23 15:14:19
Writing application              : mkvmerge v5.2.1 ('A Far Off Place') built on Jan  2 2012 23:21:10
Writing library                  : libebml v1.2.3 + libmatroska v1.3.0

Video
ID                               : 1
Format                           : AVC
Format/Info                      : Advanced Video Codec
Format profile                   : High@L4.2
Format settings, CABAC           : Yes
Format settings, ReFrames        : 4 frames
Muxing mode                      : Header stripping
Codec ID                         : V_MPEG4/ISO/AVC
Duration                         : 1h 35mn
Bit rate                         : 729 Kbps
Width                            : 720 pixels
Height                           : 304 pixels
Display aspect ratio             : 2.35:1
Frame rate                       : 25.000 fps
Color space                      : YUV
Chroma subsampling               : 4:2:0
Bit depth                        : 8 bits
Scan type                        : Progressive
Bits/(Pixel*Frame)               : 0.133
Stream size                      : 496 MiB (83%)
Writing library                  : x264 core 120 r2146 bcd41db
Language                         : English
Default                          : Yes
Forced                           : No
Source                           : INSPiRAL, thanks mate...

Audio
ID                               : 2
Format                           : AC-3
Format/Info                      : Audio Coding 3
Mode extension                   : CM (complete main)
Muxing mode                      : Header stripping
Codec ID                         : A_AC3
Duration                         : 1h 35mn
Bit rate mode                    : Constant
Bit rate                         : 128 Kbps
Channel(s)                       : 2 channels
Channel positions                : Front: L R
Sampling rate                    : 44.1 KHz
Bit depth                        : 16 bits
Compression mode                 : Lossy
Stream size                      : 87.1 MiB (15%)
Default                          : Yes
Forced                           : No
Source                           : INSPiRAL, thanks mate...

iMDB: http://www.imdb.com/title/tt1568338/

Encoder: Kareemzos..

DTRG bringing the p2p world yet another release, Man On A Ledge 2012 CAM.....

readnfo is because there is a few missing minutes but nothing important..
denoised, tweaked colors, sharpened and H264'd it, come out very nice and small in size too....
yep there's a fair few of these out but here's my take on it..
if better audio is released expect v2....
take it or leave it, your choice at the end of the day.......
check the sample before downloading because the screens cant tell you the real Q of
the release, enjoy folks.....

[b][i][size=6]SCREENSHOTS:[/b][/i][/size]

[IMG]http://img217.imageshack.us/img217/1028/vlcsnap2012022315h16m30.png[/IMG]
[IMG]http://img51.imageshack.us/img51/9909/vlcsnap2012022315h16m37.png[/IMG]
[IMG]http://img205.imageshack.us/img205/3315/vlcsnap2012022315h16m50.png[/IMG]
[IMG]http://img815.imageshack.us/img815/3536/vlcsnap2012022315h17m01.png[/IMG]
[IMG]http://img402.imageshack.us/img402/9726/vlcsnap2012022315h17m09.png[/IMG]
[IMG]http://img195.imageshack.us/img195/1717/vlcsnap2012022315h17m30.png[/IMG]
[IMG]http://img215.imageshack.us/img215/5342/vlcsnap2012022315h19m56.png[/IMG]
[IMG]http://img585.imageshack.us/img585/7620/vlcsnap2012022315h20m16.png[/IMG]
[IMG]http://img713.imageshack.us/img713/9708/vlcsnap2012022315h20m46.png[/IMG]
[IMG]http://img809.imageshack.us/img809/4012/vlcsnap2012022315h20m51.png[/IMG]
[IMG]http://img594.imageshack.us/img594/5885/vlcsnap2012022315h21m35.png[/IMG]
[IMG]http://img21.imageshack.us/img21/9615/vlcsnap2012022315h21m58.png[/IMG]
[IMG]http://img29.imageshack.us/img29/8831/vlcsnap2012022315h22m23.png[/IMG]
[IMG]http://img20.imageshack.us/img20/6496/vlcsnap2012022315h23m55.png[/IMG]
[IMG]http://img16.imageshack.us/img16/5739/vlcsnap2012022315h24m13.png[/IMG]
[IMG]http://img442.imageshack.us/img442/8236/vlcsnap2012022315h24m43.png[/IMG]
[IMG]http://img703.imageshack.us/img703/5774/vlcsnap2012022315h28m12.png[/IMG]
[IMG]http://img560.imageshack.us/img560/2871/vlcsnap2012022315h38m34.png[/IMG]

Greetz to EMBER, ETRG, BHRG, CreWSaDe, RemixHD, PRESTiGE, LEGiTiMATE, INSPiRAL, EXQUiSiTE, LEGiON, Xtreme Encode.......and maybe many more........